<svg id="Layer_1" data-name="Layer 1" xmlns="http://www.w3.org/2000/svg" xmlns:xlink="http://www.w3.org/1999/xlink" viewBox="0 0 476.25 397"><defs><style>.cls-1,.cls-15,.cls-2{fill:none;}.cls-2{stroke:#f8951d;stroke-linecap:round;stroke-width:4px;}.cls-13,.cls-15,.cls-2{stroke-miterlimit:10;}.cls-3{fill:#d8d8d8;}.cls-13,.cls-4{fill:#3a3a3a;}.cls-5{fill:#9b9a9a;}.cls-6{fill:#999;}.cls-7{fill:#bcbcbc;}.cls-8{fill:#f8951d;}.cls-9{fill:#df7f26;}.cls-10{fill:#012631;}.cls-11{fill:#fff;}.cls-12{fill:#7d7d7d;}.cls-13,.cls-15{stroke:#3a3a3a;}.cls-13{fill-rule:evenodd;}.cls-14{clip-path:url(#clip-path);}.cls-15{stroke-width:8px;}</style><clipPath id="clip-path"><path class="cls-1" d="M431.31,142.78c3.45,51.66-34.85,96.5-85.53,100.15s-94.56-35.26-98-86.92,31.31-89.29,82-92.94S427.87,91.12,431.31,142.78Z"/></clipPath></defs><title>Artboard 1</title><line class="cls-2" x1="104.86" y1="285.72" x2="83.19" y2="294.42"/><path class="cls-2" d="M79,295.3s11.64,7.05,4.75,15.05"/><line class="cls-2" x1="146.89" y1="320.03" x2="104.02" y2="339.37"/><path class="cls-2" d="M104.36,340.7s11.64,7.05,4.75,15.05"/><path class="cls-3" d="M219.81,133c44.52,0,84.83,10,114,26.23s39.53-5.32,39.54,19.41c0,51.18-47.49,104.42-89.39,110.94-82.41,12.84-127.45-18.75-193.62-55.51-29.18-16.21,49.54-7.1,49.54-31.83"/><path class="cls-4" d="M294.06,233.81l-4,45.64,66.32-45.35s-42.74,114-242.17,151.44c0,0,12.78-49.92,38.26-75.4l-55.57-1.36,10.84-37.95s-50-9.6-87.7-47.26C-1.48,202,179.69,250.49,217,183.36,241.11,139.87,294.06,233.81,294.06,233.81Z"/><path class="cls-5" d="M329.3,212.16S303.57,140.45,70,75.6c0,0,58.56,77,72.26,82.22L156,163l-47.29-1.28s26.25,26.64,76.07,45.56C184.77,207.31,309.54,264.21,329.3,212.16Z"/><path class="cls-6" d="M293.9,234.09s26.32,18.91,52.88,8.15l.72-24-59.7,1.58Z"/><path class="cls-7" d="M431.31,142.78c3.45,51.66-35,96.51-85.91,100.18S250.46,207.73,247,156.07s31.46-89.3,82.35-93S427.87,91.12,431.31,142.78Z"/><path class="cls-8" d="M416,146.88s20.38-13.39,57.49,9.43l-68.21,13S400.46,150.74,416,146.88Z"/><path class="cls-9" d="M462.29,158.44s-28.91,21.81-57,10.86Z"/><circle class="cls-10" cx="386.77" cy="136.56" r="13.41" transform="translate(-7.37 23) rotate(-3.37)"/><circle class="cls-11" cx="391.98" cy="131.57" r="5.08" transform="translate(33.25 337.17) rotate(-48.37)"/><path class="cls-7" d="M289.56,74.53c6.49-4.46,48.44-22.19,58.91-24.12-10.49,1.93-15.38,26.21-8.2,31.35,11.15,8,35.7-11.51,44.22-19.34"/><path class="cls-11" d="M163.52,354.65c-4.51-4.51-6.1-4.51-10.61,0,4.51-4.51,4.51-6.1,0-10.61,4.51,4.51,6.1,4.51,10.61,0C159,348.55,159,350.13,163.52,354.65Z"/><path class="cls-11" d="M216.56,326.37c-15-15-20.33-15-35.37,0,15-15,15-20.33,0-35.37,15,15,20.33,15,35.37,0C201.52,306,201.52,311.33,216.56,326.37Z"/><path class="cls-11" d="M256.51,331.76c-7.52-7.52-10.16-7.52-17.69,0,7.52-7.52,7.52-10.16,0-17.69,7.52,7.52,10.16,7.52,17.69,0C249,321.59,249,324.23,256.51,331.76Z"/><path class="cls-11" d="M263.13,291.63c-4.51-4.51-6.1-4.51-10.61,0,4.51-4.51,4.51-6.1,0-10.61,4.51,4.51,6.1,4.51,10.61,0C258.62,285.53,258.62,287.11,263.13,291.63Z"/><path class="cls-11" d="M179.54,277.15c-9.49-9.49-12.83-9.49-22.32,0,9.49-9.49,9.49-12.83,0-22.32,9.49,9.49,12.83,9.49,22.32,0C170,264.32,170,267.66,179.54,277.15Z"/><path class="cls-11" d="M131.26,289.86c-3-3-4.07-3-7.07,0,3-3,3-4.07,0-7.07,3,3,4.07,3,7.07,0C128.25,285.79,128.25,286.85,131.26,289.86Z"/><path class="cls-12" d="M100.65,114c11.57,1.84,129.55,26,146.13,57.81L106.6,116.17Z"/><path class="cls-7" d="M297.37,222.81S265,127.13,6,101.76c0,0,68.57,93.78,83.85,97.28l15.27,3.5L53.4,214.46s30.26,30.69,85.81,43.42C139.22,257.88,278.9,303.45,297.37,222.81Z"/><path class="cls-11" d="M283.46,312c-4.51-4.51-6.1-4.51-10.61,0,4.51-4.51,4.51-6.1,0-10.61"/><path class="cls-11" d="M324.12,291.63c-4.51-4.51-6.1-4.51-10.61,0,4.51-4.51,4.51-6.1,0-10.61"/><path class="cls-4" d="M283.86,133.85c-1.24-4,20-23.36,5.22-46,2.47,9.24-7.12,18.87-6.73,29.79-1.82-10.3,8.73-27,4.7-33.9,0,0-10.74-22.71-20.66-30.88a29.7,29.7,0,0,1,.45,17c.19-12-2.69-20.39-6.84-24.19,0,0,3,5.59,2.12,17.9-1.4-9.62-2.6-23.23-8.48-27.94,0,0-24.11-22.19-30.51-23.34a3.2,3.2,0,0,1,.5,2.33s-2.07-3.06-7.4-3.62c2.42,2.19,4.29,4.37,3.74,5.44s-2.08.48-2.84-.46S223,34.48,245,54.6c2,1.13-13-8-16.46-15.22.71,9,2.25,17.15,10.49,23.65.83,1.73.9,2.83,2.75,3.84,2.89,3.92,18.07,9.79,18.94,11,0,0-13-4-18-8.8-.61-1.09,3.63,13.71,8.56,20.11,3.79,4.87-.73,17.86,25,32-6.46-2.74-9-4.06-11.11-5.47s-3.57-5.56-5-5.13c14.59-6.89,20.47,23,21,25.74"/><path class="cls-13" d="M285.15,142.68a1.61,1.61,0,0,1-1.92-2.25l.1-.18c5.24-10.81-13.09-25.42-13.27-25.57a1.6,1.6,0,1,1,2-2.52c.67.53,13.31,10.6,15.2,21.31,3.63-5.59,9.35-12.83,15.69-14.79l4.13-1.28a56.43,56.43,0,0,1,16-2.52c4.24-.06,9.6-.37,19.62-3.47a1.6,1.6,0,1,1,.95,3.06c-10.42,3.23-16.06,3.56-20.53,3.62A53.34,53.34,0,0,0,308,120.47l-4.13,1.28c-8.77,2.72-16.91,18.4-17.7,20l-.08.15a1.6,1.6,0,0,1-1,.81"/><path class="cls-13" d="M290.71,133.46a1.6,1.6,0,0,1-1.9-2.26c4.28-8.51-8-24.74-13.06-30.27a1.61,1.61,0,0,1,2.36-2.18c.81.88,19.72,21.68,13.56,33.9a1.6,1.6,0,0,1-1,.81"/><path class="cls-13" d="M295.57,127.49a1.58,1.58,0,0,1-1.06,0,1.61,1.61,0,0,1-.91-2.08c5.95-15.15-10.39-33.25-10.56-33.43a1.6,1.6,0,0,1,2.37-2.16c.73.8,17.85,19.77,11.18,36.77a1.61,1.61,0,0,1-1,.95"/><path class="cls-13" d="M302.35,122.23a1.61,1.61,0,0,1-1.89-2.28c7.5-14.23-8.54-37.4-8.7-37.63a1.61,1.61,0,1,1,2.63-1.85c.71,1,17.32,25,8.91,41a1.61,1.61,0,0,1-.95.79"/><path class="cls-13" d="M308.48,120.33a1.61,1.61,0,0,1-1.34-2.89c7.18-4.57,6.44-16.32,4.55-25.37a109.36,109.36,0,0,0-6.18-19.37,1.61,1.61,0,0,1,2.94-1.3c.69,1.56,16.78,38.32.43,48.75a1.7,1.7,0,0,1-.39.18"/><path class="cls-13" d="M318,118.37a1.61,1.61,0,1,1-1-3.07c16.12-5,4.83-44.09,4.71-44.49a1.61,1.61,0,0,1,1.07-2h0a1.6,1.6,0,0,1,2,1.08c.51,1.74,12.28,42.55-6.84,48.47"/><path class="cls-13" d="M327.84,117.7a1.61,1.61,0,1,1-1-3.07c15.34-4.75,9.5-39.77,9.44-40.12A1.61,1.61,0,0,1,339.5,74c.27,1.56,6.35,38.16-11.66,43.74"/><path class="cls-13" d="M342.12,114.95a1.6,1.6,0,1,1-.95-3.06c6.4-2,10.15-6.75,11.15-14.16a34.18,34.18,0,0,0-.48-11.1,1.6,1.6,0,0,1,3.12-.76c.06.23,5.45,23.42-12.84,29.08"/><g class="cls-14"><path class="cls-15" d="M219.81,133s73.61,15.7,192.88-57.42"/></g></svg>